<?xml version="1.0" standalone="no"?>
<!DOCTYPE svg PUBLIC "-//W3C//DTD SVG 20010904//EN"
 "http://www.w3.org/TR/2001/REC-SVG-20010904/DTD/svg10.dtd">
<svg version="1.0" xmlns="http://www.w3.org/2000/svg"
 width="223.000000pt" height="180.000000pt" viewBox="0 0 223.000000 180.000000"
 preserveAspectRatio="xMidYMid meet">

<g transform="translate(0.000000,180.000000) scale(0.100000,-0.100000)"
fill="#000000" stroke="none">
<path d="M795 1675 c-120 -26 -243 -99 -324 -192 -85 -96 -151 -271 -151 -403
0 -154 71 -323 181 -431 185 -183 446 -227 698 -118 l53 22 111 -110 c221
-217 319 -308 344 -322 39 -20 118 -10 149 20 55 51 70 129 36 180 -9 15 -111
118 -227 231 l-209 205 26 59 c40 89 58 173 58 266 0 102 -19 179 -67 277 -45
94 -159 212 -250 259 -126 66 -289 88 -428 57z m288 -263 c80 -37 142 -100
181 -182 27 -57 31 -76 31 -150 0 -103 -28 -172 -99 -248 -243 -260 -673 -54
-624 299 33 244 291 385 511 281z"/>
</g>
</svg>
